<svg xmlns="http://www.w3.org/2000/svg" xmlns:xlink="http://www.w3.org/1999/xlink" viewBox="0 0 420 420" width="420" height="420"><rect width="420" height="420" fill="#08090B"/><svg x="0" y="7.5" width="420" height="405" viewBox="0 0 420 405">
<path fill="#08090B" opacity="1.000000" stroke="none" 
	d="
M247.000000,406.000000 
	C164.666672,406.000000 82.833336,406.000000 1.000000,406.000000 
	C1.000000,271.000000 1.000000,136.000000 1.000000,1.000000 
	C141.000000,1.000000 281.000000,1.000000 421.000000,1.000000 
	C421.000000,136.000000 421.000000,271.000000 421.000000,406.000000 
	C363.166656,406.000000 305.333344,406.000000 247.000000,406.000000 
M202.534988,263.724487 
	C205.954239,260.462738 209.373505,257.201019 213.428467,253.689697 
	C217.548157,249.771149 221.667847,245.852600 226.415848,241.666306 
	C230.535614,237.754059 234.655380,233.841812 239.410339,229.669678 
	C243.178452,226.085663 246.946564,222.501633 251.347000,218.649643 
	C260.001831,210.647659 268.656677,202.645691 277.311493,194.643707 
	C277.138611,194.216354 276.965729,193.789017 276.792877,193.361664 
	C268.632446,193.361664 260.472015,193.361664 252.434952,193.361664 
	C253.314041,186.064575 254.109039,179.465408 254.887344,173.004944 
	C254.643555,172.905655 254.924515,173.020096 255.205475,173.134521 
	C248.860458,183.821228 242.515427,194.507935 235.778656,205.854462 
	C239.941010,206.208328 243.055725,206.473145 246.901657,206.800125 
	C245.152252,208.777542 244.079285,209.990356 242.392349,211.426941 
	C238.852875,214.784393 235.313385,218.141861 231.136292,221.782303 
	C227.029861,225.690704 222.923447,229.599106 218.185501,233.808426 
	C214.066925,237.711670 209.948334,241.614914 205.194519,245.816605 
	C201.409988,249.414902 197.625473,253.013214 193.194321,256.870758 
	C189.753845,260.146515 186.313370,263.422272 182.246185,266.952393 
	C180.542343,268.237610 178.838501,269.522858 177.134644,270.808075 
	C176.842194,270.613007 176.549728,270.417969 176.257263,270.222900 
	C177.049500,268.125488 177.841736,266.028076 179.212357,263.529816 
	C181.254669,259.396301 183.296967,255.262772 185.830872,250.683945 
	C188.184341,245.788620 190.537827,240.893311 193.112350,235.305374 
	C195.375427,230.869019 197.638504,226.432663 200.113510,221.306946 
	C202.203842,217.639435 204.527847,214.081146 206.309219,210.269257 
	C207.688675,207.317368 209.456055,206.171082 212.762726,206.232239 
	C216.025131,206.292572 219.304367,205.443207 223.049561,204.482132 
	C224.113968,202.478424 225.178375,200.474701 226.773270,198.006287 
	C228.839050,194.491577 230.930176,190.991486 232.966614,187.459839 
	C249.109451,159.464508 265.241882,131.463181 281.377502,103.463699 
	C281.073608,103.119125 280.769684,102.774559 280.465759,102.429985 
	C279.084686,103.230843 277.504333,103.813919 276.353760,104.866699 
	C266.291351,114.073662 256.282471,123.339561 246.302948,132.636566 
	C232.195724,145.778992 218.127060,158.962799 203.412231,172.341599 
	C198.273880,177.223923 193.135544,182.106247 187.363403,187.210175 
	C183.576889,190.833847 179.790375,194.457520 175.374420,198.295761 
	C172.178146,201.359695 168.981873,204.423630 165.154221,207.776443 
	C161.720871,211.057999 158.287506,214.339569 154.208557,217.878891 
	C150.097504,221.659576 145.986450,225.440247 140.829376,230.182892 
	C155.573914,230.182892 168.841797,230.182892 182.141586,231.015793 
	C181.084167,233.653107 180.026749,236.290421 178.425903,239.333618 
	C175.379807,245.443817 172.333694,251.554001 168.844971,258.130707 
	C157.750732,279.948151 146.656509,301.765594 135.153915,324.386078 
	C136.826126,323.657013 137.850677,323.483490 138.488220,322.892487 
	C155.682770,306.954102 172.837662,290.972870 190.620911,274.751465 
	C194.382767,271.158905 198.144623,267.566345 202.534988,263.724487 
z"/>
<path fill="#EBB947" opacity="1.000000" stroke="none" 
	d="
M204.041901,172.128906 
	C218.127060,158.962799 232.195724,145.778992 246.302948,132.636566 
	C256.282471,123.339561 266.291351,114.073662 276.353760,104.866699 
	C277.504333,103.813919 279.084686,103.230843 280.465759,102.429985 
	C280.769684,102.774559 281.073608,103.119125 281.377502,103.463699 
	C265.241882,131.463181 249.109451,159.464508 232.966614,187.459839 
	C230.930176,190.991486 228.839050,194.491577 226.315460,197.921356 
	C223.738022,196.167221 221.618362,194.498001 219.632111,192.493622 
	C227.122696,179.761063 234.479874,167.363693 241.837051,154.966324 
	C241.314056,154.602570 240.791046,154.238831 240.268051,153.875092 
	C236.901596,156.993179 233.609848,160.196960 230.152664,163.210968 
	C223.602417,168.921509 216.957260,174.523178 210.040253,179.992767 
	C207.833282,177.253265 205.937592,174.691086 204.041901,172.128906 
z"/>
<path fill="#E8782A" opacity="1.000000" stroke="none" 
	d="
M178.633972,263.930664 
	C177.841736,266.028076 177.049500,268.125488 176.257263,270.222900 
	C176.549728,270.417969 176.842194,270.613007 177.134644,270.808075 
	C178.838501,269.522858 180.542343,268.237610 182.647781,267.177277 
	C185.365997,269.934387 187.682617,272.466644 189.999237,274.998871 
	C172.837662,290.972870 155.682770,306.954102 138.488220,322.892487 
	C137.850677,323.483490 136.826126,323.657013 135.153915,324.386078 
	C146.656509,301.765594 157.750732,279.948151 169.405426,258.080627 
	C172.855240,259.997223 175.744598,261.963959 178.633972,263.930664 
z"/>
<path fill="#EEBA48" opacity="1.000000" stroke="none" 
	d="
M243.006317,211.203186 
	C244.079285,209.990356 245.152252,208.777542 246.901657,206.800125 
	C243.055725,206.473145 239.941010,206.208328 235.778656,205.854462 
	C242.515427,194.507935 248.860458,183.821228 255.205475,173.134521 
	C254.924515,173.020096 254.643555,172.905655 254.887344,173.004944 
	C254.109039,179.465408 253.314041,186.064575 252.434952,193.361664 
	C260.472015,193.361664 268.632446,193.361664 276.792877,193.361664 
	C276.965729,193.789017 277.138611,194.216354 277.311493,194.643707 
	C268.656677,202.645691 260.001831,210.647659 250.689575,218.761719 
	C247.690201,216.316910 245.348251,213.760040 243.006317,211.203186 
z"/>
<path fill="#EE8D33" opacity="1.000000" stroke="none" 
	d="
M154.854156,217.621155 
	C158.287506,214.339569 161.720871,211.057999 165.529419,208.025467 
	C168.068024,210.900620 170.231445,213.526764 172.456619,216.436249 
	C173.345459,217.120590 174.172531,217.521591 175.073761,218.265289 
	C177.100952,222.058838 179.053970,225.509689 180.538086,228.970520 
	C176.269791,228.982605 172.470383,228.992584 168.671021,228.985138 
	C161.992935,228.972046 156.531113,224.474686 154.854156,217.621155 
z"/>
<path fill="#EE9737" opacity="1.000000" stroke="none" 
	d="
M181.006989,228.960541 
	C179.053970,225.509689 177.100952,222.058838 175.527527,218.165604 
	C177.880035,217.701126 179.882370,217.885208 181.818954,217.608810 
	C184.752274,217.190125 187.639893,216.451050 190.909683,215.932220 
	C194.148834,218.009659 197.025208,220.002991 199.901581,221.996323 
	C197.638504,226.432663 195.375427,230.869019 192.648376,235.624664 
	C188.888336,233.998215 185.592285,232.052460 182.104782,229.890747 
	C181.611221,229.436722 181.309113,229.198624 181.006989,228.960541 
z"/>
<path fill="#ECAB41" opacity="1.000000" stroke="none" 
	d="
M219.498703,192.828796 
	C221.618362,194.498001 223.738022,196.167221 226.050232,198.153717 
	C225.178375,200.474701 224.113968,202.478424 222.374847,204.737213 
	C213.686935,204.926132 205.245300,206.798737 198.817383,199.547089 
	C200.153610,195.015381 202.561539,193.129257 207.268921,193.567825 
	C211.287674,193.942230 215.417831,193.121078 219.498703,192.828796 
z"/>
<path fill="#ECAB41" opacity="1.000000" stroke="none" 
	d="
M203.727066,172.235260 
	C205.937592,174.691086 207.833282,177.253265 210.003967,180.345795 
	C204.999268,185.858185 199.719604,190.840225 194.252914,195.480682 
	C192.042999,192.422241 190.020111,189.705414 187.997208,186.988571 
	C193.135544,182.106247 198.273880,177.223923 203.727066,172.235260 
z"/>
<path fill="#ECA13C" opacity="1.000000" stroke="none" 
	d="
M198.738007,199.917999 
	C205.245300,206.798737 213.686935,204.926132 222.138184,204.992615 
	C219.304367,205.443207 216.025131,206.292572 212.762726,206.232239 
	C209.456055,206.171082 207.688675,207.317368 206.309219,210.269257 
	C204.527847,214.081146 202.203842,217.639435 200.007553,221.651642 
	C197.025208,220.002991 194.148834,218.009659 191.011307,215.582352 
	C193.412781,210.071579 196.075394,204.994781 198.738007,199.917999 
z"/>
<path fill="#EE9737" opacity="1.000000" stroke="none" 
	d="
M225.787537,241.934052 
	C221.667847,245.852600 217.548157,249.771149 212.759323,253.793335 
	C207.754776,252.784119 206.593658,249.299530 205.829742,245.518158 
	C209.948334,241.614914 214.066925,237.711670 218.553223,234.048431 
	C221.209808,236.836975 223.498672,239.385513 225.787537,241.934052 
z"/>
<path fill="#ECA13C" opacity="1.000000" stroke="none" 
	d="
M226.101685,241.800171 
	C223.498672,239.385513 221.209808,236.836975 218.868988,233.897980 
	C222.923447,229.599106 227.029861,225.690704 231.514343,222.031128 
	C234.186646,224.829803 236.480896,227.379669 238.775131,229.929565 
	C234.655380,233.841812 230.535614,237.754059 226.101685,241.800171 
z"/>
<path fill="#E7812E" opacity="1.000000" stroke="none" 
	d="
M180.538086,228.970520 
	C181.309113,229.198624 181.611221,229.436722 182.059998,229.914734 
	C182.206650,230.154648 182.109680,230.182892 182.109680,230.182892 
	C168.841797,230.182892 155.573914,230.182892 140.829376,230.182892 
	C145.986450,225.440247 150.097504,221.659576 154.531372,217.750031 
	C156.531113,224.474686 161.992935,228.972046 168.671021,228.985138 
	C172.470383,228.992584 176.269791,228.982605 180.538086,228.970520 
z"/>
<path fill="#ECA13C" opacity="1.000000" stroke="none" 
	d="
M187.680298,187.099365 
	C190.020111,189.705414 192.042999,192.422241 194.091766,195.749298 
	C190.487747,199.600754 186.857834,202.841995 182.878693,205.998993 
	C180.354279,203.303558 178.179077,200.692383 176.003876,198.081207 
	C179.790375,194.457520 183.576889,190.833847 187.680298,187.099365 
z"/>
<path fill="#E7812E" opacity="1.000000" stroke="none" 
	d="
M178.923157,263.730225 
	C175.744598,261.963959 172.855240,259.997223 169.626740,257.847351 
	C172.333694,251.554001 175.379807,245.443817 178.688110,239.519989 
	C177.679733,246.105560 178.945404,248.368454 185.339294,251.129242 
	C183.296967,255.262772 181.254669,259.396301 178.923157,263.730225 
z"/>
<path fill="#ECAB41" opacity="1.000000" stroke="none" 
	d="
M239.092743,229.799622 
	C236.480896,227.379669 234.186646,224.829803 231.833160,221.889618 
	C235.313385,218.141861 238.852875,214.784393 242.699326,211.315063 
	C245.348251,213.760040 247.690201,216.316910 250.373413,218.895691 
	C246.946564,222.501633 243.178452,226.085663 239.092743,229.799622 
z"/>
<path fill="#EE8D33" opacity="1.000000" stroke="none" 
	d="
M185.585083,250.906601 
	C178.945404,248.368454 177.679733,246.105560 178.959808,239.317047 
	C180.026749,236.290421 181.084167,233.653107 182.125641,230.599335 
	C182.109680,230.182892 182.206650,230.154648 182.251434,230.130676 
	C185.592285,232.052460 188.888336,233.998215 192.537842,235.970978 
	C190.537827,240.893311 188.184341,245.788620 185.585083,250.906601 
z"/>
<path fill="#E7812E" opacity="1.000000" stroke="none" 
	d="
M190.310074,274.875183 
	C187.682617,272.466644 185.365997,269.934387 182.961136,267.050110 
	C186.313370,263.422272 189.753845,260.146515 193.611740,257.105042 
	C195.694763,260.690826 197.515884,263.857727 201.906479,263.973785 
	C198.144623,267.566345 194.382767,271.158905 190.310074,274.875183 
z"/>
<path fill="#EE8D33" opacity="1.000000" stroke="none" 
	d="
M202.220734,263.849121 
	C197.515884,263.857727 195.694763,260.690826 193.935059,256.975403 
	C197.625473,253.013214 201.409988,249.414902 205.512146,245.667389 
	C206.593658,249.299530 207.754776,252.784119 212.441467,253.918121 
	C209.373505,257.201019 205.954239,260.462738 202.220734,263.849121 
z"/>
<path fill="#EE9737" opacity="1.000000" stroke="none" 
	d="
M175.689148,198.188477 
	C178.179077,200.692383 180.354279,203.303558 182.726212,206.303375 
	C179.413589,209.845642 175.904236,212.999268 172.394867,216.152893 
	C170.231445,213.526764 168.068024,210.900620 165.845093,207.881042 
	C168.981873,204.423630 172.178146,201.359695 175.689148,198.188477 
z"/>
<path fill="#17130E" opacity="1.000000" stroke="none" 
	d="
M172.456619,216.436249 
	C175.904236,212.999268 179.413589,209.845642 183.075439,206.387634 
	C186.857834,202.841995 190.487747,199.600754 194.278809,196.090897 
	C199.719604,190.840225 204.999268,185.858185 210.315247,180.523102 
	C216.957260,174.523178 223.602417,168.921509 230.152664,163.210968 
	C233.609848,160.196960 236.901596,156.993179 240.268051,153.875092 
	C240.791046,154.238831 241.314056,154.602570 241.837051,154.966324 
	C234.479874,167.363693 227.122696,179.761063 219.632111,192.493622 
	C215.417831,193.121078 211.287674,193.942230 207.268921,193.567825 
	C202.561539,193.129257 200.153610,195.015381 198.817383,199.547089 
	C196.075394,204.994781 193.412781,210.071579 190.648544,215.498230 
	C187.639893,216.451050 184.752274,217.190125 181.818954,217.608810 
	C179.882370,217.885208 177.880035,217.701126 175.453384,217.822906 
	C174.172531,217.521591 173.345459,217.120590 172.456619,216.436249 
z"/>
</svg></svg>